<?xml version="1.0" standalone="no"?><!-- Generator: Gravit.io --><svg xmlns="http://www.w3.org/2000/svg" xmlns:xlink="http://www.w3.org/1999/xlink" style="isolation:isolate" viewBox="0 0 595.276 841.89" width="595.276" height="841.89"><defs><clipPath id="_clipPath_YapMjwTodzkowrPFpHo7PjkhkNZHtlP5"><rect width="595.276" height="841.89"/></clipPath></defs><g clip-path="url(#_clipPath_YapMjwTodzkowrPFpHo7PjkhkNZHtlP5)"><g><path d=" M 317.681 189.207 C 373.991 52.573 486.621 52.573 542.931 120.882 C 599.241 189.222 599.241 325.84 542.931 462.474 C 503.505 564.953 402.151 667.433 317.681 735.757 C 233.21 667.418 131.835 564.953 92.43 462.474 C 36.12 325.84 36.12 189.207 92.43 120.882 C 148.74 52.573 261.371 52.573 317.681 189.207 Z " fill-rule="evenodd" fill="rgb(255,0,0)"/><path d=" M 261.328 435.944 Q 333.039 503.353 396.145 450.287 Q 399.014 533.472 343.079 542.077 C 287.144 550.682 189.617 368.536 261.328 435.944 Z " fill="rgb(0,0,0)" vector-effect="non-scaling-stroke" stroke-width="1" stroke="rgb(0,0,0)" stroke-linejoin="miter" stroke-linecap="square" stroke-miterlimit="3"/><path d=" M 396.285 485.43 Q 387.865 535.505 345.146 542.077 C 322.231 545.602 292.335 517.113 269.975 486.879 C 288.436 478.24 310.797 480.255 327.645 493.444 C 332.947 497.594 335.87 499.883 335.87 499.883 C 335.87 499.883 338.761 497.642 344.027 493.575 C 359.326 481.755 379.106 479.193 396.285 485.43 Z " fill-rule="evenodd" fill="rgb(234,144,234)" vector-effect="non-scaling-stroke" stroke-width="1" stroke="rgb(0,0,0)" stroke-linejoin="miter" stroke-linecap="square" stroke-miterlimit="3"/><path d=" M 247.48 384.969 L 247.48 384.969 C 247.413 384.953 247.345 384.94 247.278 384.927 C 247.349 384.878 247.424 384.826 247.515 384.763 C 247.5 384.83 247.49 384.899 247.48 384.969 Z  M 198.687 420.945 L 198.252 420.613 L 198.247 420.614 C 198.247 420.614 198.243 420.61 198.236 420.601 C 188.588 410.911 189.317 396.709 199.937 387.413 C 210.559 378.113 227.779 376.61 240.176 383.893 C 240.32 383.978 240.461 384.06 240.544 384.109 C 229.089 383.502 217.37 386.903 208.913 393.995 C 199.979 401.485 196.51 411.562 198.687 420.945 L 198.687 420.945 Z " fill-rule="evenodd" fill="rgb(46,46,46)"/><path d=" M 300.018 264.571 L 300.018 264.571 C 299.974 264.518 299.928 264.466 299.882 264.415 C 299.968 264.421 300.058 264.428 300.167 264.435 C 300.115 264.477 300.066 264.524 300.018 264.571 Z  M 240.18 262.016 L 240.033 261.496 L 240.029 261.493 C 240.029 261.493 240.028 261.488 240.027 261.477 C 238.159 248.169 247.154 237.796 261.047 237.235 C 274.944 236.673 289.425 246.103 294.891 259.265 C 294.954 259.418 295.017 259.568 295.053 259.656 C 286.373 252.158 275.108 247.553 264.228 247.763 C 252.737 247.983 244.025 253.53 240.18 262.016 L 240.18 262.016 Z " fill-rule="evenodd" fill="rgb(46,46,46)"/><path d=" M 353.765 259.903 L 353.765 259.903 C 353.816 259.856 353.867 259.81 353.919 259.765 C 353.833 259.76 353.743 259.756 353.634 259.75 C 353.68 259.798 353.723 259.85 353.765 259.903 Z  M 413.457 264.796 L 413.668 264.298 L 413.672 264.296 C 413.672 264.296 413.674 264.291 413.676 264.28 C 417.182 251.307 409.544 239.898 395.828 237.617 C 382.109 235.334 366.569 242.893 359.511 255.275 C 359.429 255.419 359.349 255.56 359.302 255.642 C 368.845 249.28 380.595 246.109 391.364 247.668 C 402.739 249.313 410.696 255.899 413.457 264.796 L 413.457 264.796 Z " fill-rule="evenodd" fill="rgb(46,46,46)"/><g><path d=" M 235.982 371.498 L 318.935 371.472 L 319.038 322.34 C 319.077 303.975 301.772 289.067 280.417 289.073 L 277.632 289.074 C 254.74 289.081 236.121 305.072 236.08 324.761 L 235.982 371.498 Z " fill-rule="evenodd" fill="rgb(255,255,255)" vector-effect="non-scaling-stroke" stroke-width="3.808" stroke="rgb(0,0,0)" stroke-linejoin="round" stroke-linecap="butt" stroke-miterlimit="1.414"/><path d=" M 241.449 335.963 C 241.256 319.473 255.224 305.919 272.623 305.716 C 290.021 305.512 304.303 318.734 304.496 335.225 C 304.689 351.715 290.721 365.269 273.323 365.473 C 255.924 365.676 241.642 352.454 241.449 335.963 Z " fill="rgb(0,0,255)"/><path d=" M 248.176 335.885 C 248.033 323.65 259.027 313.586 272.713 313.426 C 286.398 313.266 297.625 323.069 297.769 335.304 C 297.912 347.538 286.918 357.602 273.232 357.762 C 259.547 357.922 248.32 348.119 248.176 335.885 Z " fill="rgb(23,23,23)"/><rect x="258.624" y="335.659" width="17.806" height="20.942" transform="matrix(1,-0.012,0.012,1,-4.036,3.158)" fill="rgb(255,255,255)"/></g><g><path d=" M 342.951 368.386 L 423.192 371.498 L 425.181 321.885 C 425.925 303.341 409.759 287.631 389.103 286.83 L 386.408 286.726 C 364.266 285.867 345.641 301.312 344.844 321.193 L 342.951 368.386 Z " fill-rule="evenodd" fill="rgb(255,255,255)" vector-effect="non-scaling-stroke" stroke-width="3.808" stroke="rgb(0,0,0)" stroke-linejoin="round" stroke-linecap="butt" stroke-miterlimit="1.414"/><path d=" M 349.606 332.709 C 350.053 316.049 364.086 302.89 380.923 303.342 C 397.76 303.794 411.067 317.687 410.619 334.347 C 410.172 351.007 396.139 364.166 379.302 363.714 C 362.465 363.262 349.159 349.369 349.606 332.709 Z " fill="rgb(0,0,255)"/><path d=" M 356.116 332.884 C 356.448 320.523 367.47 310.776 380.714 311.132 C 393.958 311.487 404.441 321.811 404.109 334.172 C 403.777 346.533 392.755 356.28 379.511 355.924 C 366.267 355.569 355.784 345.244 356.116 332.884 Z " fill="rgb(23,23,23)"/><rect x="365.821" y="333.379" width="17.237" height="21.164" transform="matrix(1,0.027,-0.027,1,9.367,-9.926)" fill="rgb(255,255,255)"/></g></g></g></svg>