<?xml version="1.0" encoding="UTF-8" standalone="no"?>
<!-- Created with Inkscape (http://www.inkscape.org/) -->

<svg
   xmlns:dc="http://purl.org/dc/elements/1.1/"
   xmlns:cc="http://creativecommons.org/ns#"
   xmlns:rdf="http://www.w3.org/1999/02/22-rdf-syntax-ns#"
   xmlns:svg="http://www.w3.org/2000/svg"
   xmlns="http://www.w3.org/2000/svg"
   xmlns:sodipodi="http://sodipodi.sourceforge.net/DTD/sodipodi-0.dtd"
   xmlns:inkscape="http://www.inkscape.org/namespaces/inkscape"
   width="254.15181"
   height="274.68942"
   id="svg2"
   version="1.1"
   inkscape:version="0.48.0 r9654"
   sodipodi:docname="New document 1">
  <defs
     id="defs4">
    <filter
       inkscape:collect="always"
       id="filter3804"
       x="-0.31669977"
       width="1.6333996"
       y="-0.52783298"
       height="2.055666"
       color-interpolation-filters="sRGB">
      <feGaussianBlur
         inkscape:collect="always"
         stdDeviation="12.663305"
         id="feGaussianBlur3806" />
    </filter>
    <filter
       inkscape:collect="always"
       id="filter3808"
       x="-0.34189177"
       width="1.6837835"
       y="-0.39073345"
       height="1.7814668"
       color-interpolation-filters="sRGB">
      <feGaussianBlur
         inkscape:collect="always"
         stdDeviation="12.663305"
         id="feGaussianBlur3810" />
    </filter>
  </defs>
  <sodipodi:namedview
     id="base"
     pagecolor="#ffffff"
     bordercolor="#666666"
     borderopacity="1.0"
     inkscape:pageopacity="0.0"
     inkscape:pageshadow="2"
     inkscape:zoom="0.35"
     inkscape:cx="-446.98573"
     inkscape:cy="392.59359"
     inkscape:document-units="px"
     inkscape:current-layer="layer1"
     showgrid="false"
     fit-margin-top="0"
     fit-margin-left="0"
     fit-margin-right="0"
     fit-margin-bottom="0"
     inkscape:window-width="1680"
     inkscape:window-height="1002"
     inkscape:window-x="0"
     inkscape:window-y="22"
     inkscape:window-maximized="0" />
  <metadata
     id="metadata7">
    <rdf:RDF>
      <cc:Work
         rdf:about="">
        <dc:format>image/svg+xml</dc:format>
        <dc:type
           rdf:resource="http://purl.org/dc/dcmitype/StillImage" />
        <dc:title></dc:title>
      </cc:Work>
    </rdf:RDF>
  </metadata>
  <g
     inkscape:label="Layer 1"
     inkscape:groupmode="layer"
     id="layer1"
     transform="translate(-31.541731,-70.943242)">
    <g
       id="g3899">
      <path
         sodipodi:nodetypes="cscsc"
         inkscape:connector-curvature="0"
         id="path2985"
         d="m 160.72211,345.63265 c 0,0 -162.8571371,-97.14286 -122.857137,-214.28571 40,-117.142863 123.693967,-16.19218 123.693967,-16.19218 0,0 84.87746,-109.5221133 119.16317,16.19218 34.28571,125.71428 -120,214.28571 -120,214.28571 z"
         style="color:#000000;fill:#d40000;fill-opacity:1;fill-rule:nonzero;stroke:none;stroke-width:3;marker:none;visibility:visible;display:inline;overflow:visible;enable-background:accumulate" />
      <path
         transform="matrix(0.94029851,0,0,1.24,184.57145,-11.382904)"
         d="m -55.558388,144.23505 c 0,13.94729 -15.150733,25.25381 -33.840111,25.25381 -18.689381,0 -33.840111,-11.30652 -33.840111,-25.25381 0,-13.9473 15.15073,-25.25382 33.840111,-25.25382 18.689378,0 33.840111,11.30652 33.840111,25.25382 z"
         sodipodi:ry="25.253813"
         sodipodi:rx="33.840111"
         sodipodi:cy="144.23505"
         sodipodi:cx="-89.398499"
         id="path3847"
         style="color:#000000;fill:#ffffff;fill-opacity:1;fill-rule:nonzero;stroke:none;stroke-width:3;marker:none;visibility:visible;display:inline;overflow:visible;enable-background:accumulate"
         sodipodi:type="arc" />
      <path
         sodipodi:type="arc"
         style="color:#000000;fill:#ffffff;fill-opacity:1;fill-rule:nonzero;stroke:none;stroke-width:3;marker:none;visibility:visible;display:inline;overflow:visible;enable-background:accumulate"
         id="path3849"
         sodipodi:cx="-89.398499"
         sodipodi:cy="144.23505"
         sodipodi:rx="33.840111"
         sodipodi:ry="25.253813"
         d="m -55.558388,144.23505 c 0,13.94729 -15.150733,25.25381 -33.840111,25.25381 -18.689381,0 -33.840111,-11.30652 -33.840111,-25.25381 0,-13.9473 15.15073,-25.25382 33.840111,-25.25382 18.689378,0 33.840111,11.30652 33.840111,25.25382 z"
         transform="matrix(0.94029851,0,0,1.24,291.64762,-20.474277)" />
      <path
         sodipodi:nodetypes="cc"
         inkscape:connector-curvature="0"
         id="path3851"
         d="m 109.86703,244.47974 c 53.02198,-67.87079 108.56551,0 108.56551,0"
         style="color:#000000;fill:none;stroke:#000000;stroke-width:4.54111958;marker:none;visibility:visible;display:inline;overflow:visible;enable-background:accumulate" />
      <path
         transform="translate(187.88837,42.426407)"
         d="m -68.690374,122.51676 c 0,11.43679 -9.045214,20.70813 -20.203051,20.70813 -11.157835,0 -20.203055,-9.27134 -20.203055,-20.70813 0,-11.43678 9.04522,-20.70813 20.203055,-20.70813 11.157837,0 20.203051,9.27135 20.203051,20.70813 z"
         sodipodi:ry="20.708128"
         sodipodi:rx="20.203051"
         sodipodi:cy="122.51676"
         sodipodi:cx="-88.893425"
         id="path3853"
         style="color:#000000;fill:#000000;stroke:#000000;stroke-width:3;stroke-linecap:round;stroke-linejoin:miter;stroke-miterlimit:4;stroke-opacity:1;stroke-dasharray:none;stroke-dashoffset:0;marker:none;visibility:visible;display:inline;overflow:visible;enable-background:accumulate"
         sodipodi:type="arc" />
      <path
         inkscape:connector-curvature="0"
         id="path3855"
         d="m 159.6041,230.09801 1.01015,19.1929"
         style="color:#000000;fill:#000000;fill-opacity:1;fill-rule:nonzero;stroke:#000000;stroke-width:3;stroke-linecap:round;stroke-linejoin:miter;stroke-miterlimit:4;stroke-opacity:1;stroke-dasharray:none;stroke-dashoffset:0;marker:none;visibility:visible;display:inline;overflow:visible;enable-background:accumulate" />
      <path
         inkscape:connector-curvature="0"
         id="path3857"
         d="m 172.73609,231.10816 0,15.15229"
         style="color:#000000;fill:#000000;fill-opacity:1;fill-rule:nonzero;stroke:#000000;stroke-width:3;stroke-linecap:round;stroke-linejoin:miter;stroke-miterlimit:4;stroke-opacity:1;stroke-dasharray:none;stroke-dashoffset:0;marker:none;visibility:visible;display:inline;overflow:visible;enable-background:accumulate" />
      <path
         sodipodi:type="arc"
         style="color:#000000;fill:#000000;stroke:#000000;stroke-width:3;stroke-linecap:round;stroke-linejoin:miter;stroke-miterlimit:4;stroke-opacity:1;stroke-dasharray:none;stroke-dashoffset:0;marker:none;visibility:visible;display:inline;overflow:visible;enable-background:accumulate"
         id="path3859"
         sodipodi:cx="-88.893425"
         sodipodi:cy="122.51676"
         sodipodi:rx="20.203051"
         sodipodi:ry="20.708128"
         d="m -68.690374,122.51676 c 0,11.43679 -9.045214,20.70813 -20.203051,20.70813 -11.157835,0 -20.203055,-9.27134 -20.203055,-20.70813 0,-11.43678 9.04522,-20.70813 20.203055,-20.70813 11.157837,0 20.203051,9.27135 20.203051,20.70813 z"
         transform="translate(299.00515,37.375644)" />
      <path
         sodipodi:type="arc"
         style="color:#000000;fill:#ffffff;stroke:none;stroke-width:3;marker:none;visibility:visible;display:inline;overflow:visible;enable-background:accumulate"
         id="path3861"
         sodipodi:cx="-88.893425"
         sodipodi:cy="122.51676"
         sodipodi:rx="20.203051"
         sodipodi:ry="20.708128"
         d="m -68.690374,122.51676 c 0,11.43679 -9.045214,20.70813 -20.203051,20.70813 -11.157835,0 -20.203055,-9.27134 -20.203055,-20.70813 0,-11.43678 9.04522,-20.70813 20.203055,-20.70813 11.157837,0 20.203051,9.27135 20.203051,20.70813 z"
         transform="matrix(0.4769143,0,0,0.4769143,131.04708,98.937032)" />
      <path
         transform="matrix(0.4769143,0,0,0.4769143,148.21967,116.10963)"
         d="m -68.690374,122.51676 c 0,11.43679 -9.045214,20.70813 -20.203051,20.70813 -11.157835,0 -20.203055,-9.27134 -20.203055,-20.70813 0,-11.43678 9.04522,-20.70813 20.203055,-20.70813 11.157837,0 20.203051,9.27135 20.203051,20.70813 z"
         sodipodi:ry="20.708128"
         sodipodi:rx="20.203051"
         sodipodi:cy="122.51676"
         sodipodi:cx="-88.893425"
         id="path3863"
         style="color:#000000;fill:#ffffff;stroke:none;stroke-width:3;marker:none;visibility:visible;display:inline;overflow:visible;enable-background:accumulate"
         sodipodi:type="arc" />
      <path
         sodipodi:type="arc"
         style="color:#000000;fill:#ffffff;stroke:none;stroke-width:3;marker:none;visibility:visible;display:inline;overflow:visible;enable-background:accumulate"
         id="path3865"
         sodipodi:cx="-88.893425"
         sodipodi:cy="122.51676"
         sodipodi:rx="20.203051"
         sodipodi:ry="20.708128"
         d="m -68.690374,122.51676 c 0,11.43679 -9.045214,20.70813 -20.203051,20.70813 -11.157835,0 -20.203055,-9.27134 -20.203055,-20.70813 0,-11.43678 9.04522,-20.70813 20.203055,-20.70813 11.157837,0 20.203051,9.27135 20.203051,20.70813 z"
         transform="matrix(0.4769143,0,0,0.4769143,148.21967,116.10963)" />
      <path
         transform="matrix(0.4769143,0,0,0.4769143,239.89102,90.603273)"
         d="m -68.690374,122.51676 c 0,11.43679 -9.045214,20.70813 -20.203051,20.70813 -11.157835,0 -20.203055,-9.27134 -20.203055,-20.70813 0,-11.43678 9.04522,-20.70813 20.203055,-20.70813 11.157837,0 20.203051,9.27135 20.203051,20.70813 z"
         sodipodi:ry="20.708128"
         sodipodi:rx="20.203051"
         sodipodi:cy="122.51676"
         sodipodi:cx="-88.893425"
         id="path3867"
         style="color:#000000;fill:#ffffff;stroke:none;stroke-width:3;marker:none;visibility:visible;display:inline;overflow:visible;enable-background:accumulate"
         sodipodi:type="arc" />
      <path
         sodipodi:type="arc"
         style="color:#000000;fill:#ffffff;stroke:none;stroke-width:3;marker:none;visibility:visible;display:inline;overflow:visible;enable-background:accumulate"
         id="path3869"
         sodipodi:cx="-88.893425"
         sodipodi:cy="122.51676"
         sodipodi:rx="20.203051"
         sodipodi:ry="20.708128"
         d="m -68.690374,122.51676 c 0,11.43679 -9.045214,20.70813 -20.203051,20.70813 -11.157835,0 -20.203055,-9.27134 -20.203055,-20.70813 0,-11.43678 9.04522,-20.70813 20.203055,-20.70813 11.157837,0 20.203051,9.27135 20.203051,20.70813 z"
         transform="matrix(0.4769143,0,0,0.4769143,262.11438,110.55379)" />
    </g>
  </g>
</svg>
